<svg xmlns="http://www.w3.org/2000/svg" width="24" height="24" viewBox="0 0 24 24">
  <path fill-rule="evenodd" d="M12,24 C5.372583,24 0,18.627417 0,12 C0,5.372583 5.372583,0 12,0 C18.627417,0 24,5.372583 24,12 C24,18.627417 18.627417,24 12,24 Z M12,9 C13.3807119,9 14.5,7.88071187 14.5,6.5 C14.5,5.11928813 13.3807119,4 12,4 C10.6192881,4 9.5,5.11928813 9.5,6.5 C9.5,7.88071187 10.6192881,9 12,9 Z M18.651,13.241 L15.151,10.241 C14.9697389,10.0855093 14.7388157,10.0000216 14.5,10 L9.5,10 C9.26118429,10.0000216 9.03026112,10.0855093 8.849,10.241 L5.349,13.241 C5.13767386,13.4223132 5.01151431,13.6835269 5.00088558,13.9617719 C4.99025685,14.2400168 5.09612154,14.5100937 5.293,14.707 L8,17.414 L8,14.586 L7.471,14.057 L9,12.746 L9,19 C9,19.5522847 9.44771525,20 10,20 L14,20 C14.5522847,20 15,19.5522847 15,19 L15,12.746 L16.529,14.057 L16,14.586 L16,17.414 L18.707,14.707 C18.9038785,14.5100937 19.0097431,14.2400168 18.9991144,13.9617719 C18.9884857,13.6835269 18.8623261,13.4223132 18.651,13.241 Z"/>
</svg>
