<svg xmlns="http://www.w3.org/2000/svg" width="24" height="24" viewBox="0 0 24 24">
  <path fill-rule="evenodd" d="M12,24 C5.372583,24 0,18.627417 0,12 C0,5.372583 5.372583,0 12,0 C18.627417,0 24,5.372583 24,12 C24,18.627417 18.627417,24 12,24 Z M13,9.5 L13,7 C13,6.4475 12.5525,6 12,6 C11.4475,6 11,6.4475 11,7 L11,9.5 L13,9.5 Z M17.5,8.5 L14,8.5 L14,10.5 L10,10.5 L10,8.5 L6.5,8.5 C6.224,8.5 6,8.724 6,9 L6,17.5 C6,17.776 6.224,18 6.5,18 L17.5,18 C17.776,18 18,17.776 18,17.5 L18,9 C18,8.724 17.776,8.5 17.5,8.5 Z M10,12 C10.5525,12 11,12.4475 11,13 C11,13.5525 10.5525,14 10,14 C9.4475,14 9,13.5525 9,13 C9,12.4475 9.4475,12 10,12 Z M8,16 C8,15.1715 8.6715,14.5 9.5,14.5 L10.5,14.5 C11.3285,14.5 12,15.1715 12,16 L8,16 Z M16,15.5 L13,15.5 L13,14.5 L16,14.5 L16,15.5 Z M16,13.5 L13,13.5 L13,12.5 L16,12.5 L16,13.5 Z"/>
</svg>
